<svg width="113" height="35" viewBox="0 0 113 35" fill="none" xmlns="http://www.w3.org/2000/svg">
<path d="M66.4158 19.4146C62.0203 18.9863 52.2984 19.4146 1 19.4146V26.6962V33.9777H76.2411V29.9086C72.0034 23.4638 70.8114 19.8429 66.4158 19.4146Z" fill="white" stroke="black"/>
<rect x="59.8152" y="29.0598" width="16.4259" height="4.91783" fill="#D9D9D9"/>
<rect x="12.6572" y="24.1421" width="10.5973" height="4.02368" rx="1" fill="#ACD2FE"/>
<rect x="24.844" y="24.1421" width="10.0675" height="4.02368" rx="1" fill="#ACD2FE"/>
<path d="M70.5564 21.9067H65.1138L70.1475 28.2041L75.7111 29.507L72.002 23.4268L70.5564 21.9067Z" fill="#ACD2FE"/>
<rect x="1" y="29.0598" width="47.1582" height="4.91783" fill="#D9D9D9"/>
<rect x="47.999" y="22.6666" width="5.68283" height="11.3334" fill="#8C8B8B"/>
<rect x="59.8813" y="34.0001" width="5.68283" height="11.3334" transform="rotate(180 59.8813 34.0001)" fill="#8C8B8B"/>
<path d="M53.9404 23.1027C53.9528 22.8727 54.0268 22.8535 54.1987 22.8848V33.7822C54.035 33.7858 53.9441 33.7858 53.9404 33.5643V23.1027Z" fill="black"/>
<rect x="47.999" y="22.6666" width="0.51662" height="11.3334" fill="black"/>
<rect x="59.3647" y="22.6666" width="0.51662" height="11.3334" fill="black"/>
<rect x="49.5491" y="23.5385" width="3.61634" height="5.66668" rx="1" fill="#D9D9D9"/>
<rect x="54.7153" y="23.5385" width="3.61634" height="5.66668" rx="1" fill="#D9D9D9"/>
<path d="M53.94 23.1025C53.9297 22.8753 53.8643 22.8423 53.6817 22.8846V33.8511C53.6817 33.9202 53.9778 33.7515 53.94 33.5641V23.1025Z" fill="black"/>
<path d="M65.1121 21.9067H1V22.7562L64.5951 22.9685L69.5069 28.9146L75.9762 30.4012V29.7306L75.7113 29.2835L70.0239 28.0652L65.1121 21.9067Z" fill="#F26E61"/>
<path d="M66.4158 19.4146C62.0203 18.9863 52.2984 19.4146 1 19.4146V33.9777H76.2411V29.9086C72.0034 23.4638 70.8114 19.8429 66.4158 19.4146Z" stroke="black"/>
</svg>
